<?xml version="1.0" encoding="UTF-8"?>
<svg id="Layer_2" data-name="Layer 2" xmlns="http://www.w3.org/2000/svg" viewBox="0 0 553.04 677.01">
  <defs>
    <style>
      .cls-1 {
        fill: #fff;
      }
    </style>
  </defs>
  <g id="Layer_2-2" data-name="Layer 2">
    <g id="Layer_1-2" data-name="Layer 1-2">
      <g>
        <path class="cls-1" d="M414.71,532.67c.1,2.02.13,4.04.13,6.07,0,76.36-61.9,138.26-138.26,138.26h-138.31v-400.47c0-76.36,61.9-138.26,138.26-138.26s138.26,61.9,138.26,138.26l-.08,256.15h0ZM345.71,538.74c0-1.01-.03-2.02-.05-3.03v-259.18c0-38.18-30.95-69.13-69.13-69.13s-69.13,30.95-69.13,69.13v331.34h69.18c38.18,0,69.13-30.95,69.13-69.13Z"/>
        <rect class="cls-1" x="483.91" y="607.88" width="69.13" height="69.13"/>
        <path class="cls-1" d="M69.13,677.01v-400.49c0-114.54,92.85-207.39,207.39-207.39s207.39,92.85,207.39,207.39v262.23h69.13v-262.23C553.04,123.8,429.24,0,276.52,0S0,123.8,0,276.52v400.49h69.13Z"/>
      </g>
    </g>
  </g>
</svg>